# xmcd
#
# Track frame offsets:
# 150
# 13955
# 26120
# 41875
# 56282
# 71677
# 83765
# 97522
# 108517
# 117992
# 130840
# 145047
# 159810
# 178922
#
# Disc length: 2576 seconds
#
#
# Revision: 0
# Processed by: cddbd v1.4PL0 Copyright (c) Steve Scherf et al.
# Submitted via: FreeRIP 2.52 
#
DISCID=b50a0e0e
DTITLE=Trio Parada Dura - Trio Parada Dura - Disco 1
DYEAR=1900
DGENRE=Country
TTITLE0=Panela Velha
TTITLE1=Mineiro Não Perde Trem
TTITLE2=Bicho Bom é Mulher
TTITLE3=Não Vá Embora
TTITLE4=Não Quero Piedade
TTITLE5=Distante Dela
TTITLE6=O Relógio da Matriz
TTITLE7=Casa da Esquina
TTITLE8=Eu Não Sou Sapato Seu
TTITLE9=As Andorinhas
TTITLE10=Boi Tufão
TTITLE11=Parede e Meia
TTITLE12=A Vaquinha
TTITLE13=Soraia
EXTD=
EXTT0=
EXTT1=
EXTT2=
EXTT3=
EXTT4=
EXTT5=
EXTT6=
EXTT7=
EXTT8=
EXTT9=
EXTT10=
EXTT11=
EXTT12=
EXTT13=
PLAYORDER=
